<svg fill="none" xmlns="http://www.w3.org/2000/svg" viewBox="0 0 252 51">
  <path d="M80.52 31.197c0-.398-.06-.756-.176-1.072-.117-.328-.334-.633-.65-.914-.317-.281-.774-.563-1.372-.844-.586-.293-1.36-.598-2.32-.914a34.694 34.694 0 0 1-3.252-1.265 14.46 14.46 0 0 1-2.795-1.67 7.56 7.56 0 0 1-1.951-2.25c-.48-.868-.72-1.875-.72-3.024 0-1.101.245-2.092.737-2.97a6.768 6.768 0 0 1 2.057-2.268c.89-.633 1.934-1.113 3.129-1.441 1.195-.34 2.502-.51 3.92-.51 1.875 0 3.527.328 4.957.984 1.441.645 2.566 1.565 3.375 2.76.82 1.183 1.23 2.584 1.23 4.201h-6.134c0-.645-.135-1.213-.405-1.705a2.746 2.746 0 0 0-1.177-1.16c-.528-.282-1.19-.422-1.987-.422-.773 0-1.424.117-1.95.351-.528.235-.927.551-1.196.95-.27.386-.404.814-.404 1.283 0 .387.105.738.316 1.055.223.304.533.591.932.86.41.27.902.528 1.476.774.586.246 1.242.487 1.969.721 1.36.434 2.566.92 3.621 1.459 1.066.527 1.963 1.13 2.69 1.81a6.684 6.684 0 0 1 1.67 2.286c.386.855.58 1.822.58 2.9 0 1.148-.223 2.168-.668 3.059a6.347 6.347 0 0 1-1.916 2.267c-.833.61-1.829 1.072-2.989 1.389-1.16.316-2.455.475-3.885.475-1.312 0-2.607-.164-3.884-.493a11.487 11.487 0 0 1-3.446-1.547 8.016 8.016 0 0 1-2.478-2.689c-.61-1.101-.914-2.408-.914-3.92h6.187c0 .75.1 1.383.3 1.899.198.515.491.931.878 1.248.387.304.861.527 1.424.668a8.704 8.704 0 0 0 1.933.193c.786 0 1.418-.111 1.899-.334.48-.234.832-.54 1.055-.914.222-.387.333-.809.333-1.266Zm19.037.774 5.326-19.565h6.908L103.16 38h-4.465l.862-6.03Zm-4.834-19.565 5.326 19.565.896 6.029h-4.517L87.85 12.406h6.873Zm39.638 11.918v10.512c-.433.48-1.101.996-2.004 1.547-.89.539-2.015 1.002-3.375 1.389-1.359.386-2.959.58-4.798.58-1.7 0-3.241-.27-4.623-.809a9.862 9.862 0 0 1-3.569-2.408c-.984-1.067-1.746-2.367-2.285-3.903-.527-1.546-.791-3.316-.791-5.308V24.5c0-1.992.27-3.762.809-5.309.539-1.546 1.295-2.847 2.267-3.902a9.777 9.777 0 0 1 3.463-2.426c1.336-.55 2.801-.826 4.395-.826 2.355 0 4.271.375 5.748 1.125 1.476.738 2.595 1.764 3.357 3.076.762 1.301 1.225 2.807 1.389 4.518h-5.924c-.117-.844-.34-1.559-.668-2.145a3.12 3.12 0 0 0-1.371-1.353c-.598-.317-1.371-.475-2.32-.475a4.32 4.32 0 0 0-2.022.475c-.598.316-1.107.797-1.529 1.441-.422.633-.75 1.43-.985 2.39-.222.962-.334 2.087-.334 3.376v1.459c0 1.277.106 2.396.317 3.357.222.961.551 1.764.984 2.409a4.353 4.353 0 0 0 1.688 1.44c.691.317 1.506.475 2.443.475.656 0 1.219-.052 1.688-.158a5.073 5.073 0 0 0 1.16-.422c.316-.175.556-.34.72-.492V28.56h-4.289v-4.236h10.459Zm29.479 8.93V38h-12.938v-4.746h12.938ZM153.1 12.406V38h-6.17V12.406h6.17Zm33.873 12.287v1.037c0 1.957-.276 3.715-.827 5.274-.539 1.547-1.306 2.871-2.302 3.973a10.207 10.207 0 0 1-3.533 2.513c-1.36.575-2.86.862-4.5.862-1.653 0-3.165-.287-4.536-.862a10.376 10.376 0 0 1-3.55-2.513c-.996-1.102-1.77-2.426-2.321-3.973-.539-1.559-.808-3.317-.808-5.274v-1.037c0-1.957.269-3.715.808-5.273.551-1.559 1.319-2.883 2.303-3.973a9.91 9.91 0 0 1 3.533-2.513c1.371-.586 2.883-.88 4.535-.88 1.641 0 3.141.294 4.5.88a9.871 9.871 0 0 1 3.551 2.513c.996 1.09 1.77 2.414 2.32 3.973.551 1.558.827 3.316.827 5.273Zm-6.258 1.037v-1.072c0-1.265-.111-2.379-.334-3.34-.211-.972-.527-1.787-.949-2.443-.422-.656-.944-1.148-1.565-1.477-.609-.34-1.306-.51-2.092-.51-.82 0-1.535.17-2.144.51-.61.329-1.119.82-1.529 1.477-.411.656-.721 1.47-.932 2.443-.199.961-.299 2.075-.299 3.34v1.072c0 1.254.1 2.368.299 3.34.211.961.521 1.776.932 2.444.421.668.937 1.171 1.546 1.511.622.34 1.342.51 2.163.51.785 0 1.482-.17 2.091-.51.61-.34 1.119-.843 1.53-1.511.422-.668.738-1.483.949-2.444.223-.972.334-2.086.334-3.34Zm30.392-1.406v10.512c-.433.48-1.101.996-2.003 1.547-.891.539-2.016 1.002-3.375 1.389-1.36.386-2.959.58-4.799.58-1.7 0-3.241-.27-4.623-.809a9.862 9.862 0 0 1-3.569-2.408c-.984-1.067-1.746-2.367-2.285-3.903-.527-1.546-.791-3.316-.791-5.308V24.5c0-1.992.27-3.762.809-5.309.539-1.546 1.295-2.847 2.267-3.902a9.777 9.777 0 0 1 3.463-2.426c1.336-.55 2.801-.826 4.395-.826 2.355 0 4.271.375 5.748 1.125 1.476.738 2.595 1.764 3.357 3.076.762 1.301 1.225 2.807 1.389 4.518h-5.924c-.117-.844-.34-1.559-.668-2.145a3.12 3.12 0 0 0-1.371-1.353c-.598-.317-1.371-.475-2.32-.475-.739 0-1.412.158-2.022.475-.597.316-1.107.797-1.529 1.441-.422.633-.75 1.43-.985 2.39-.222.962-.333 2.087-.333 3.376v1.459c0 1.277.105 2.396.316 3.357.223.961.551 1.764.984 2.409a4.353 4.353 0 0 0 1.688 1.44c.691.317 1.506.475 2.443.475.656 0 1.219-.052 1.688-.158a5.073 5.073 0 0 0 1.16-.422c.316-.175.556-.34.721-.492V28.56h-4.29v-4.236h10.459Zm25.26.37v1.037c0 1.956-.275 3.714-.826 5.273-.539 1.547-1.307 2.871-2.303 3.973a10.207 10.207 0 0 1-3.533 2.513c-1.359.575-2.859.862-4.5.862-1.652 0-3.164-.287-4.535-.862a10.39 10.39 0 0 1-3.551-2.513c-.996-1.102-1.769-2.426-2.32-3.973-.539-1.559-.809-3.317-.809-5.274v-1.037c0-1.957.27-3.715.809-5.273.551-1.559 1.318-2.883 2.303-3.973a9.9 9.9 0 0 1 3.533-2.513c1.371-.586 2.883-.88 4.535-.88 1.641 0 3.141.294 4.5.88a9.871 9.871 0 0 1 3.551 2.513c.996 1.09 1.769 2.414 2.32 3.973.551 1.558.826 3.316.826 5.273Zm-6.258 1.037v-1.073c0-1.265-.111-2.379-.334-3.34-.211-.972-.527-1.787-.949-2.443-.422-.656-.943-1.148-1.564-1.477-.61-.34-1.307-.51-2.092-.51-.82 0-1.535.17-2.145.51-.609.329-1.119.82-1.529 1.477-.41.656-.721 1.47-.932 2.443-.199.961-.298 2.075-.298 3.34v1.072c0 1.254.099 2.368.298 3.34.211.961.522 1.776.932 2.444.422.668.938 1.171 1.547 1.511.621.34 1.342.51 2.162.51.785 0 1.483-.17 2.092-.51.609-.34 1.119-.843 1.529-1.511.422-.668.738-1.483.949-2.444.223-.972.334-2.086.334-3.34Z" fill="#272361"/>
  <path fill="#E90000" d="M0 0h51v51H0z"/>
</svg>